<svg viewBox="0 0 800 600" xmlns="http://www.w3.org/2000/svg" role="img" aria-label="Placeholder">
  <defs>
    <linearGradient id="s" x1="0" y1="0" x2="1" y2="1">
      <stop offset="0" stop-color="#FAF6EF"/><stop offset="1" stop-color="#C8A96A" stop-opacity="0.35"/>
    </linearGradient>
  </defs>
  <rect width="800" height="600" fill="url(#s)"/>
  <g fill="none" stroke="#1F2D3D" stroke-opacity="0.55" stroke-width="3" stroke-linecap="round" stroke-linejoin="round">
    <!-- cake left -->
    <g transform="translate(300 320) scale(1.9)">
      <path d="M-60 40 Q 0 55 60 40"/>
      <rect x="-46" y="2" width="92" height="38" rx="6"/>
      <rect x="-28" y="-26" width="56" height="28" rx="6"/>
      <path d="M-46 16 Q -34 24 -23 16 Q -11 24 0 16 Q 11 24 23 16 Q 34 24 46 16" stroke="#C8A96A"/>
    </g>
    <!-- bloom right -->
    <g transform="translate(540 300) scale(1.8)">
      <path d="M0 55 C 0 30 0 12 0 -8"/>
      <g transform="translate(0 -22) scale(0.7)">
        <path d="M0 0 C -10 -13 -6.5 -29 0 -34 C 6.5 -29 10 -13 0 0 Z" transform="rotate(0)"/>
        <path d="M0 0 C -10 -13 -6.5 -29 0 -34 C 6.5 -29 10 -13 0 0 Z" transform="rotate(72)"/>
        <path d="M0 0 C -10 -13 -6.5 -29 0 -34 C 6.5 -29 10 -13 0 0 Z" transform="rotate(144)"/>
        <path d="M0 0 C -10 -13 -6.5 -29 0 -34 C 6.5 -29 10 -13 0 0 Z" transform="rotate(216)"/>
        <path d="M0 0 C -10 -13 -6.5 -29 0 -34 C 6.5 -29 10 -13 0 0 Z" transform="rotate(288)"/>
      </g>
      <path d="M0 30 C -9 28 -16 22 -20 14 C -11 14 -5 18 0 24" stroke="#C8A96A"/>
    </g>
  </g>
</svg>
